# xmcd CD database file
#
# Track frame offsets:
#	150
#	31674
#	46301
#	79109
#	98588
#	113633
#	135215
#	161597
#	181892
#	203317
#	213062
#	233536
#	249744
#	267947
#	289468
#
# Disc length: 4103 seconds
#
# Revision: 0
# Processed by: cddbd v1.5PL3 Copyright (c) Steve Scherf et al.
# Submitted via: CDex 1.51
#
DISCID=b610050f
DTITLE=Manuel Rocheman - Alone at last
DYEAR=2003
DGENRE=Jazz
TTITLE0=Beatriz
TTITLE1=Donna Lee
TTITLE2=Strangers in the night
TTITLE3=Jitterburg Waltz
TTITLE4=La Puerta
TTITLE5=Duc's Blues
TTITLE6=Dreamland
TTITLE7=My Romance
TTITLE8=Over The Rainbow
TTITLE9=Chromatic Boogie
TTITLE10=So Tender
TTITLE11=Take The A Train
TTITLE12=Sozinho
TTITLE13=Song for Helen
TTITLE14=On Green Dolphin Street
EXTD=YEAR: 2003
EXTT0=
EXTT1=
EXTT2=
EXTT3=
EXTT4=
EXTT5=
EXTT6=
EXTT7=
EXTT8=
EXTT9=
EXTT10=
EXTT11=
EXTT12=
EXTT13=
EXTT14=
PLAYORDER=
